<?xml version="1.0" encoding="UTF-8"?>
<!DOCTYPE svg PUBLIC "-//W3C//DTD SVG 1.1//EN" "http://www.w3.org/Graphics/SVG/1.1/DTD/svg11.dtd">
<!-- Creator: CorelDRAW X7 -->
<svg xmlns="http://www.w3.org/2000/svg" xml:space="preserve" width="84.0186mm" height="22.9538mm" version="1.1" style="shape-rendering:geometricPrecision; text-rendering:geometricPrecision; image-rendering:optimizeQuality; fill-rule:evenodd; clip-rule:evenodd"
viewBox="0 0 2900 792"
 xmlns:xlink="http://www.w3.org/1999/xlink">
 <defs>
  <style type="text/css">
   <![CDATA[
    .str0 {stroke:#2F2760;stroke-width:6.08927}
    .fil1 {fill:none}
    .fil2 {fill:#262F48}
    .fil0 {fill:#2F2760}
   ]]>
  </style>
 </defs>
 <g id="Layer_x0020_1">
  <metadata id="CorelCorpID_0Corel-Layer"/>
  <path class="fil0" d="M651 297l0 262 -93 0 0 -262 93 0zm37 0l94 0c25,0 44,1 58,4 13,3 24,7 30,13 7,5 12,12 14,20 3,7 4,20 4,36l0 23c0,17 -3,29 -7,37 -5,7 -14,13 -26,17 -13,4 -29,6 -49,6l-25 0 0 106 -93 0 0 -262zm93 44l0 67c3,0 5,0 7,0 8,0 14,-1 17,-4 4,-3 5,-10 5,-19l0 -22c0,-9 -2,-15 -5,-17 -4,-3 -12,-5 -24,-5zm330 35l-86 0 0 -19c0,-9 -2,-15 -4,-18 -2,-2 -6,-3 -11,-3 -5,0 -9,1 -12,5 -3,3 -5,8 -5,15 0,9 2,15 5,20 3,4 12,9 26,16 42,18 68,32 78,44 11,12 16,30 16,56 0,19 -3,33 -9,41 -6,9 -17,17 -34,23 -17,6 -37,9 -59,9 -25,0 -46,-4 -64,-11 -17,-7 -29,-15 -34,-26 -6,-11 -8,-26 -8,-46l0 -17 86 0 0 32c0,10 1,16 3,19 3,3 7,4 13,4 6,0 11,-1 14,-5 3,-4 4,-9 4,-16 0,-15 -3,-26 -8,-30 -6,-5 -21,-13 -44,-24 -23,-11 -38,-20 -45,-25 -8,-5 -14,-12 -19,-21 -5,-9 -7,-20 -7,-34 0,-20 3,-35 10,-44 7,-10 18,-17 34,-22 15,-5 34,-8 56,-8 24,0 45,3 62,9 17,5 28,13 33,21 6,9 9,24 9,45l0 10zm276 -79l53 262 -95 0 -5 -47 -33 0 -5 47 -96 0 47 -262 134 0zm-49 168c-5,-29 -10,-66 -14,-110 -10,51 -16,87 -18,110l32 0zm311 -40l-83 0 0 -25c0,-8 -1,-14 -3,-17 -2,-3 -6,-5 -11,-5 -5,0 -8,2 -10,4 -2,3 -3,9 -3,18l0 102c0,8 1,13 4,17 3,4 7,6 12,6 6,0 10,-2 12,-6 2,-4 3,-12 3,-23l0 -25 79 0c0,17 -1,30 -2,38 -2,9 -7,18 -15,27 -8,9 -19,16 -32,20 -14,5 -30,7 -50,7 -25,0 -45,-3 -59,-9 -15,-7 -26,-16 -32,-27 -6,-11 -9,-28 -9,-49l0 -61c0,-18 3,-32 8,-41 5,-9 15,-18 32,-25 16,-7 36,-11 59,-11 23,0 43,4 59,11 17,7 28,16 33,27 6,11 8,27 8,47zm106 2l-83 0 0 -14c0,-17 2,-30 8,-39 5,-9 15,-17 31,-24 16,-7 36,-10 61,-10 30,0 53,4 68,12 15,8 24,17 28,29 3,11 4,35 4,70l0 108 -86 0 0 -19c-6,8 -13,14 -21,17 -9,4 -19,6 -31,6 -16,0 -30,-3 -43,-10 -13,-6 -19,-20 -19,-42l0 -18c0,-16 3,-27 10,-32 7,-6 24,-13 51,-21 30,-8 45,-14 47,-17 2,-3 3,-9 3,-18 0,-11 -1,-18 -3,-22 -2,-3 -6,-5 -11,-5 -6,0 -10,2 -12,4 -1,3 -2,11 -2,23l0 22zm28 30c-14,8 -22,14 -24,19 -3,5 -4,13 -4,23 0,11 1,18 3,21 2,3 6,5 12,5 5,0 9,-1 11,-4 1,-2 2,-9 2,-20l0 -44zm322 -160l0 262 -89 0 0 -15c-9,6 -18,11 -27,14 -9,3 -19,5 -29,5 -14,0 -26,-3 -36,-8 -10,-5 -17,-11 -20,-18 -3,-8 -4,-19 -4,-35l0 -101c0,-16 1,-28 4,-35 3,-7 10,-13 20,-18 10,-5 23,-8 37,-8 11,0 21,1 30,4 9,3 17,8 25,14l0 -61 89 0zm-89 101c0,-8 -1,-13 -3,-16 -2,-2 -5,-4 -11,-4 -5,0 -9,1 -10,4 -2,2 -3,8 -3,16l0 106c0,8 1,14 3,17 1,3 5,4 10,4 5,0 9,-2 11,-5 2,-3 3,-10 3,-22l0 -100zm322 57l-115 0 0 47c0,10 1,16 3,19 2,3 5,4 11,4 7,0 11,-2 13,-6 3,-3 4,-11 4,-21l0 -29 84 0 0 16c0,14 -1,24 -3,31 -3,7 -8,15 -16,23 -9,8 -19,14 -32,18 -13,4 -29,6 -48,6 -19,0 -36,-2 -50,-6 -15,-4 -26,-9 -34,-16 -8,-7 -13,-15 -16,-23 -3,-9 -5,-21 -5,-37l0 -63c0,-19 4,-33 10,-44 7,-11 19,-19 34,-25 16,-6 34,-9 54,-9 25,0 46,4 62,11 16,6 28,16 34,27 7,12 10,28 10,49l0 28zm-89 -35l0 -15c0,-12 -1,-19 -3,-22 -1,-3 -4,-5 -9,-5 -7,0 -10,2 -12,4 -1,3 -2,10 -2,23l0 15 26 0zm206 -76l-2 20c7,-8 15,-14 25,-18 9,-4 20,-6 32,-6 24,0 43,8 56,24 8,-8 16,-14 26,-18 9,-4 20,-6 31,-6 15,0 28,3 38,8 9,6 16,12 18,20 3,8 5,21 5,38l0 153 -87 0 0 -140c0,-18 0,-30 -2,-34 -2,-5 -6,-7 -12,-7 -6,0 -10,2 -12,7 -2,4 -3,15 -3,34l0 140 -86 0 0 -137c0,-21 -1,-33 -2,-37 -1,-5 -5,-7 -12,-7 -4,0 -7,1 -10,4 -3,2 -4,4 -4,8 -1,3 -1,10 -1,20l0 149 -86 0 0 -215 88 0zm445 0l-25 156c-4,24 -8,41 -10,50 -3,9 -7,17 -14,22 -6,6 -15,10 -26,13 -11,3 -29,4 -54,4l-54 0 0 -34c14,0 23,0 27,-2 4,-1 6,-3 6,-6 0,-2 -2,-10 -6,-23l-48 -180 80 0 30 145 14 -145 80 0z"/>
  <polygon class="fil1 str0" points="5,230 81,230 81,363 5,363 "/>
  <polyline class="fil1 str0" points="82,265 281,265 404,158 "/>
  <polyline class="fil1 str0" points="63,363 442,748 324,424 128,634 "/>
  <line class="fil1 str0" x1="153" y1="457" x2="78" y2= "694" />
  <line class="fil1 str0" x1="0" y1="695" x2="325" y2= "697" />
  <line class="fil1 str0" x1="7" y1="724" x2="387" y2= "726" />
  <line class="fil1 str0" x1="337" y1="747" x2="551" y2= "748" />
  <line class="fil1 str0" x1="411" y1="207" x2="323" y2= "428" />
  <path class="fil1 str0" d="M400 73c-8,-2 -20,-13 -22,-15 -3,27 6,46 24,58 1,27 2,54 3,81 1,5 7,9 13,9 8,-1 12,-5 12,-10 0,-28 -2,-55 -2,-82 21,-8 7,-64 6,-88 -7,3 -7,8 -12,14 -8,-8 -10,-23 -4,-36 -30,6 -23,47 -18,69z"/>
  <path class="fil1 str0" d="M224 111c42,0 76,34 76,76 0,42 -34,77 -76,77 -42,0 -77,-35 -77,-77 0,-42 35,-76 77,-76z"/>
  <path class="fil1 str0" d="M149 186l14 -14c7,3 14,5 21,9 4,-9 7,-17 11,-26l22 10 4 -27c6,5 13,10 18,15 0,-8 1,-13 1,-20 7,6 15,12 22,18 1,-6 1,-22 2,-28"/>
  <path class="fil1 str0" d="M10 188l0 140 15 0c0,-40 0,-79 0,-120 -2,-11 -11,-18 -15,-20z"/>
  <polygon class="fil2 str0" points="27,273 49,290 27,302 "/>
  <path class="fil2" d="M135 629c27,0 49,22 49,49 0,27 -22,49 -49,49 -27,0 -49,-22 -49,-49 0,-27 22,-49 49,-49zm24 18c5,0 9,4 9,9 0,5 -4,9 -9,9 -5,0 -9,-4 -9,-9 0,-5 4,-9 9,-9zm10 22c5,0 9,4 9,9 0,5 -4,10 -9,10 -5,0 -10,-5 -10,-10 0,-5 5,-9 10,-9zm-11 24c5,0 9,4 9,9 0,5 -4,9 -9,9 -5,0 -9,-4 -9,-9 0,-5 4,-9 9,-9zm-23 9c5,0 9,4 9,9 0,6 -4,10 -9,10 -5,0 -9,-4 -9,-10 0,-5 4,-9 9,-9zm-23 -9c5,0 9,4 9,9 0,5 -4,9 -9,9 -5,0 -9,-4 -9,-9 0,-5 4,-9 9,-9zm-10 -24c5,0 9,4 9,9 0,5 -4,10 -9,10 -5,0 -9,-5 -9,-10 0,-5 4,-9 9,-9zm10 -22c5,0 10,4 10,9 0,5 -5,9 -10,9 -5,0 -9,-4 -9,-9 0,-5 4,-9 9,-9zm23 -10c5,0 9,4 9,9 0,5 -4,9 -9,9 -5,0 -9,-4 -9,-9 0,-5 4,-9 9,-9z"/>
  <line class="fil1 str0" x1="372" y1="768" x2="587" y2= "770" />
  <line class="fil1 str0" x1="409" y1="788" x2="623" y2= "789" />
 </g>
</svg>
